<?xml version="1.0" encoding="utf-8"?>
<!-- Generator: Adobe Illustrator 25.2.0, SVG Export Plug-In . SVG Version: 6.00 Build 0)  -->
<svg version="1.1" id="Ebene_1" xmlns="http://www.w3.org/2000/svg" xmlns:xlink="http://www.w3.org/1999/xlink" x="0px" y="0px"
	 viewBox="0 0 130 140" style="enable-background:new 0 0 130 140;" xml:space="preserve">
<style type="text/css">
	.st0{fill:#FFFFFF;}
</style>
<g>
	<path class="st0" d="M125.7,16.7C103.3,16,82.2,5.3,74.3,1.3l-1.2-0.6c-1.9-0.9-4.1-0.9-6,0L66,1.3c-7.9,4-29.1,14.7-51.4,15.4
		c-2.4,0.1-4.2,2-4.2,4.3v25.1c0,0.8,0.7,1.5,1.5,1.5s1.5-0.7,1.5-1.5V21c0-0.7,0.6-1.3,1.3-1.3C37.7,19,59.3,8,67.3,3.9l1.2-0.6
		c1-0.5,2.2-0.5,3.3,0L73,3.9c8.1,4.1,29.7,15,52.7,15.8c0.7,0,1.3,0.6,1.3,1.3v48.4c0,16.9-8.1,33.1-21.7,43.1
		c-18,13.3-29.5,21.5-33.1,23.8c-1.2,0.7-2.7,0.7-3.9,0c-1.3-0.8-3.7-2.4-7.1-4.8c-0.7-0.5-1.6-0.3-2.1,0.4
		c-0.5,0.7-0.3,1.6,0.4,2.1c3.4,2.4,5.8,4,7.2,4.9c1.1,0.7,2.3,1,3.5,1s2.4-0.3,3.5-1c4.7-2.9,20.7-14.6,33.3-23.9
		c14.4-10.6,23-27.6,23-45.6V21.1C129.9,18.6,128.1,16.7,125.7,16.7z"/>
	<path class="st0" d="M65.8,127.8c1.5,1.1,2.7,1.9,3.6,2.5c0.3,0.2,0.5,0.3,0.8,0.3c0.3,0,0.6-0.1,0.8-0.3c3.4-2.3,11.6-8.1,31-22.4
		c12.2-9,19.5-23.4,19.5-38.6V26.4c0-0.8-0.6-1.4-1.4-1.5C97.9,22.8,78.2,12.8,70.7,9c-0.4-0.2-0.9-0.2-1.3,0
		c-7.4,3.7-27.2,13.8-49.3,15.8c-0.8,0.1-1.4,0.7-1.4,1.5v14.4c0,0.8,0.7,1.5,1.5,1.5s1.5-0.7,1.5-1.5V27.7
		c21.6-2.2,40.5-11.6,48.4-15.6c7.9,4,26.8,13.4,48.3,15.7v41.5c0,14.2-6.8,27.8-18.2,36.2c-17.9,13.2-26.2,19.1-30.1,21.7
		c-0.7-0.5-1.6-1.1-2.7-1.9c-0.7-0.5-1.6-0.3-2.1,0.4C64.9,126.4,65.1,127.4,65.8,127.8z"/>
	<path class="st0" d="M57,116c-1.4-1.9-3-4.3-4.3-7.6c-0.3-0.8-1.2-1.2-1.9-0.9c-0.8,0.3-1.2,1.2-0.9,1.9c1.4,3.5,3.2,6.1,4.6,8.2
		c0.8,1.1,1.8,2.6,1.8,3c0,0-0.6,1.6-7.3,2.4c-6.6,0.8-7.6-0.6-7.6-0.6c-0.1-0.4,0.5-2.1,1-3.3c0.9-2.2,2-5.2,2.5-9
		c0.7-5.2-2.2-9.7-7.3-11.4c0,0-0.1,0-0.1-0.1C30,96,25,88.8,25,80.8c0-1.8,0.3-3.6,0.7-5.3c0.2-0.8-0.2-1.6-1-1.9
		c-0.8-0.2-1.6,0.2-1.9,1c-0.6,2-0.9,4-0.9,6.1c0,1.3,0.1,2.6,0.4,3.8c0,0.1,0,0.1,0,0.2c0.3,1.5,1,6.6-4.4,8.8
		c-3.1,1.3-6,1.8-8.3,2.1C6.9,96,4.9,96.3,4.1,98c-1.1,2.1,0,5.4,3.6,10.2c3.2,4.2,5.8,6.4,8,6.4c0.2,0,0.5,0,0.7-0.1
		c1.8-0.4,2.6-2.2,3.8-4.8c1-2.1,2.2-4.8,4.3-7.5c0.5-0.6,0.4-1.6-0.2-2.1c-0.6-0.5-1.6-0.4-2.1,0.2c-2.3,2.9-3.7,5.9-4.7,8.1
		c-0.6,1.2-1.3,2.9-1.7,3.1c0,0-1.7,0.3-5.7-5.1c-4-5.3-3.3-7-3.3-7c0.3-0.3,2.1-0.6,3.3-0.8c2.3-0.4,5.5-0.8,9-2.3
		c2.6-1.1,4.4-2.9,5.5-5.2c2.5,4.6,6.6,8.3,11.7,10.2c0.1,0,0.2,0.1,0.3,0.1c1.5,0.5,6.1,2.4,5.4,8.2c-0.4,3.4-1.5,6.1-2.3,8.3
		c-1,2.6-1.7,4.4-0.7,5.9c0.9,1.5,3.1,2.2,6.5,2.2c1.2,0,2.6-0.1,4.1-0.3c5.8-0.7,9-2.2,9.8-4.4C59.8,120,58.6,118.3,57,116z"/>
	<path class="st0" d="M7.1,75c2.3-0.2,5.3-0.5,8.6,0c0.8,0.1,1.6-0.4,1.7-1.3c0.1-0.8-0.4-1.6-1.3-1.7c-3.7-0.6-6.9-0.3-9.3-0.1
		C5.5,72,3.6,72.2,3.3,72c0,0-1.1-1.3,1.6-7.6C7.5,58.1,9.2,58,9.2,58c0.4,0.1,1.5,1.5,2.4,2.5c1.5,1.8,3.5,4.4,6.5,6.7
		c4.2,3.2,9.4,2.9,13.5-0.7c0.1,0,0.1-0.1,0.1-0.1c2.1-1.8,4.7-3.1,7.4-3.8c1.6-0.4,3.2-0.6,4.8-0.6c5,0,9.8,2,13.3,5.5
		c0.3,0.3,0.7,0.4,1.1,0.4s0.8-0.1,1.1-0.4c0.6-0.6,0.6-1.5,0-2.1c-2.3-2.3-5-4-8-5.1c-0.1,0-0.2-0.1-0.3-0.1
		c-1.5-0.5-6.1-2.4-5.4-8.3c0.4-3.4,1.5-6.1,2.3-8.3c1-2.6,1.7-4.4,0.7-5.9c-1.3-2-4.7-2.7-10.5-2c-5.8,0.7-9,2.2-9.8,4.4
		c-0.6,1.7,0.6,3.4,2.2,5.7c1.4,1.9,3,4.3,4.3,7.6c0.3,0.8,1.2,1.2,1.9,0.9c0.8-0.3,1.2-1.2,0.9-1.9c-1.4-3.5-3.2-6.1-4.6-8.2
		c-0.8-1.1-1.8-2.6-1.8-3c0,0,0.6-1.6,7.3-2.4c6.6-0.8,7.6,0.6,7.6,0.6c0.1,0.4-0.5,2.1-1,3.3c-0.9,2.2-2,5.2-2.5,9
		C42.3,54.5,43,57,44.4,59c-0.2,0-0.4,0-0.6,0c-1.9,0-3.7,0.2-5.5,0.7c-3.1,0.8-6.1,2.4-8.6,4.5l0,0c0,0-0.1,0-0.1,0.1
		c-1.1,1-5.2,4.1-9.8,0.6c-2.7-2.1-4.5-4.3-6-6.1c-1.7-2.1-2.9-3.7-4.8-3.6c-2.4,0.1-4.7,2.8-7,8.2c-2.3,5.4-2.6,9-1,10.8
		c0.8,0.9,1.9,1.1,3.3,1.1C5.2,75.2,6.1,75.1,7.1,75z"/>
	<path class="st0" d="M16.9,56.5c0.3,1.3,1.5,2.1,3.2,3.1c1.1,0.6,2.4,1.4,3.8,2.5c0.3,0.2,0.6,0.3,0.9,0.3c0.4,0,0.9-0.2,1.2-0.6
		c0.5-0.6,0.4-1.6-0.2-2.1c-1.6-1.2-3-2.1-4.2-2.8c-0.6-0.4-1.4-0.8-1.7-1.1c0.1-0.3,0.7-1.2,2.8-2.8c2.2-1.7,3.2-1.9,3.4-1.9
		c0.2,0.4,0.5,1.4,0.7,2.2c0.4,1.3,0.8,2.9,1.6,4.7c0.3,0.8,1.2,1.1,2,0.8c0.8-0.3,1.1-1.2,0.8-2c-0.7-1.6-1.1-3.1-1.4-4.4
		c-0.6-2-1-3.4-2.2-4.1c-1.5-0.8-3.6-0.1-6.7,2.2C17.8,53,16.6,54.8,16.9,56.5z"/>
	<path class="st0" d="M57.9,109.6c0.6,1.9,1,3.3,2.2,4c0.4,0.2,0.8,0.3,1.3,0.3c1.4,0,3.1-0.8,5.3-2.5c3-2.3,4.3-4.1,3.9-5.8
		c-0.3-1.3-1.5-2-3-2.8c-1.1-0.6-2.4-1.3-3.8-2.5c-0.6-0.5-1.6-0.4-2.1,0.2c-0.5,0.6-0.4,1.6,0.2,2.1c1.6,1.3,3.2,2.1,4.3,2.7
		c0.5,0.3,1.2,0.6,1.4,0.9c-0.1,0.3-0.7,1.2-2.7,2.8c-2.3,1.7-3.2,1.9-3.4,1.9c-0.2-0.3-0.5-1.3-0.8-2.1c-0.4-1.2-0.8-2.7-1.5-4.4
		c-0.3-0.8-1.2-1.1-2-0.8c-0.8,0.3-1.1,1.2-0.8,2C57.2,107,57.6,108.4,57.9,109.6z"/>
	<path class="st0" d="M36.4,106.2c-0.8-0.1-1.6,0.4-1.7,1.3c-0.3,1.8-0.3,3.4-0.4,4.7c0,0.8-0.1,1.8-0.2,2.3c-0.3,0-1.3,0.1-3.8-1
		c-2.4-1-3.2-1.8-3.4-2c0.2-0.3,0.8-0.8,1.3-1.3c1-0.9,2.3-2.1,3.6-3.8c0.5-0.7,0.4-1.6-0.3-2.1c-0.7-0.5-1.6-0.4-2.1,0.3
		c-1.1,1.5-2.3,2.6-3.2,3.4c-1.3,1.2-2.4,2.2-2.3,3.6c0.1,1.7,1.7,3.2,5.2,4.7c2,0.8,3.5,1.2,4.8,1.2c1,0,1.7-0.3,2.3-0.8
		c1-0.9,1.1-2.4,1.2-4.4c0-1.2,0.1-2.6,0.3-4.3C37.8,107,37.3,106.3,36.4,106.2z"/>
	<path class="st0" d="M59.4,51.9c-1,0.9-2.3,2.1-3.6,3.8c-0.5,0.7-0.4,1.6,0.3,2.1c0.3,0.2,0.6,0.3,0.9,0.3c0.5,0,0.9-0.2,1.2-0.6
		c1.1-1.5,2.3-2.6,3.2-3.4c1.3-1.2,2.4-2.2,2.3-3.6c-0.1-1.7-1.7-3.2-5.2-4.7c-3.5-1.5-5.7-1.6-7-0.5c-1,0.9-1,2.4-1,4.2
		c0,1.2,0,2.8-0.2,4.6c-0.1,0.8,0.4,1.6,1.3,1.7c0.8,0.1,1.6-0.4,1.7-1.3c0.3-2,0.3-3.8,0.3-5.1c0-0.7,0-1.5,0.1-1.9
		c0.3,0,1.4,0,3.8,1s3.2,1.8,3.4,2C60.4,50.9,59.8,51.4,59.4,51.9z"/>
	<path class="st0" d="M75.6,80c-1.2-0.3-2.7-0.6-4.4-0.8c-0.8-0.1-1.6,0.5-1.7,1.3c-0.1,0.8,0.5,1.6,1.3,1.7
		c1.6,0.2,2.9,0.5,4.1,0.7c1.3,0.3,2.3,0.5,3.2,0.5c0.7,0,1.2-0.1,1.7-0.4c1.4-0.9,1.9-3.1,1.4-7s-1.4-5.8-3.1-6.4
		c-1.3-0.4-2.6,0.3-4.1,1.2c-1.1,0.6-2.4,1.4-4.1,2.1c-0.8,0.3-1.2,1.2-0.8,1.9c0.3,0.8,1.2,1.1,1.9,0.8c1.9-0.8,3.4-1.6,4.5-2.3
		c0.6-0.3,1.3-0.8,1.7-0.9c0.2,0.3,0.7,1.2,1,3.8c0.3,2.7,0,3.7-0.1,3.9C77.9,80.5,76.6,80.2,75.6,80z"/>
	<path class="st0" d="M11.1,81.9c1.3,0.3,2.8,0.8,4.8,1c0.8,0.1,1.6-0.5,1.7-1.3c0.1-0.8-0.5-1.6-1.3-1.7c-1.8-0.2-3.2-0.6-4.4-0.9
		c-1.8-0.5-3.2-0.9-4.3-0.1c-1.4,0.9-1.9,3.1-1.4,7c0.4,3.8,1.4,5.8,3,6.4c0.3,0.1,0.5,0.1,0.8,0.1c1,0,2.1-0.6,3.3-1.4
		c1.1-0.7,2.5-1.5,4.2-2.2c0.8-0.3,1.1-1.2,0.8-1.9C18,86,17.1,85.6,16.4,86c-2,0.8-3.5,1.7-4.7,2.4c-0.5,0.3-1.2,0.8-1.6,0.9
		c-0.2-0.3-0.7-1.2-1-3.8c-0.3-2.7,0-3.7,0-3.9C9.6,81.5,10.4,81.8,11.1,81.9z"/>
	<path class="st0" d="M49.2,99.2c-0.8,0.2-1.2,1.1-1,1.9c0.2,0.7,0.8,1.1,1.4,1.1c0.1,0,0.3,0,0.4-0.1c2.9-0.9,5.6-2.4,7.8-4.3
		c0,0,0.1,0,0.1-0.1c1.1-1,5.1-4.1,9.8-0.6c2.7,2.1,4.5,4.3,6,6.1c1.7,2.1,2.9,3.6,4.7,3.6h0.1c2.4-0.1,4.7-2.8,7-8.2
		c2.3-5.4,2.6-9,1-10.8c-1.2-1.4-3.2-1.2-6-0.9c-2.3,0.2-5.3,0.5-8.6,0c-0.8-0.1-1.6,0.4-1.7,1.3c-0.1,0.8,0.4,1.6,1.3,1.7
		c3.7,0.6,6.9,0.3,9.3,0.1c1.3-0.1,3.2-0.3,3.5-0.1c0,0,1.1,1.3-1.6,7.6c-2.6,6.3-4.3,6.4-4.3,6.4c-0.4-0.1-1.5-1.5-2.4-2.5
		c-1.5-1.8-3.5-4.4-6.5-6.7c-2.2-1.7-4.8-2.4-7.2-2.2c2.1-3.4,3.3-7.4,3.3-11.5c0-1.3-0.1-2.5-0.3-3.7c0-0.1,0-0.2,0-0.3
		c-0.3-1.5-1-6.6,4.3-8.8c3.1-1.3,6-1.8,8.3-2.1c2.7-0.4,4.7-0.7,5.5-2.3c1.1-2.1,0-5.4-3.6-10.2c-3.5-4.7-6.4-6.8-8.7-6.3
		c-1.8,0.4-2.6,2.2-3.8,4.8c-1,2.1-2.2,4.8-4.3,7.5c-0.5,0.6-0.4,1.6,0.2,2.1c0.6,0.5,1.6,0.4,2.1-0.2c2.3-2.9,3.7-5.9,4.7-8.1
		c0.6-1.2,1.3-2.9,1.7-3.1c0,0,1.7-0.3,5.7,5.1c4,5.3,3.3,7,3.3,7c-0.3,0.3-2.1,0.6-3.3,0.8c-2.3,0.4-5.5,0.8-9,2.3
		c-4.8,2-7.2,6.8-6.2,12c0,0.1,0,0.1,0,0.2c0.2,1.1,0.3,2.3,0.3,3.5C62.6,89.3,57.1,96.8,49.2,99.2z"/>
</g>
</svg>
