<svg xmlns="http://www.w3.org/2000/svg" width="130" height="140" viewBox="0 0 130 140"><path class="cls-1" d="M135.21,22.57c-22.36-.69-43.47-11.33-51.42-15.33l-1.18-.6a6.61,6.61,0,0,0-6,0l-1.19.6c-7.94,4-29.06,14.64-51.41,15.33a4.29,4.29,0,0,0-4.19,4.28V51.79a1.5,1.5,0,0,0,3,0V26.85a1.3,1.3,0,0,1,1.28-1.28C47.15,24.86,68.69,14,76.8,9.91L78,9.33a3.6,3.6,0,0,1,3.29,0l1.17.58c8.11,4.09,29.66,15,52.67,15.66a1.3,1.3,0,0,1,1.29,1.28v48a53.1,53.1,0,0,1-21.72,42.75c-18,13.15-29.48,21.3-33.13,23.57a3.62,3.62,0,0,1-3.85,0c-1.33-.83-3.71-2.44-7.06-4.79a1.5,1.5,0,1,0-1.72,2.45c3.4,2.39,5.82,4,7.19,4.89a6.68,6.68,0,0,0,7,0c4.68-2.91,20.7-14.49,33.31-23.7a56.1,56.1,0,0,0,23-45.17v-48A4.29,4.29,0,0,0,135.21,22.57Z" transform="translate(-9.53 -5.93)"/><path class="cls-1" d="M75.22,132.84c1.54,1.08,2.7,1.87,3.57,2.45a1.47,1.47,0,0,0,1.67,0c3.44-2.3,11.61-8,31-22.16A47.6,47.6,0,0,0,130.92,74.8V32.21a1.51,1.51,0,0,0-1.36-1.5C107.48,28.66,87.73,18.72,80.3,15A1.46,1.46,0,0,0,79,15c-7.43,3.74-27.18,13.68-49.26,15.73a1.51,1.51,0,0,0-1.36,1.5V46.53a1.5,1.5,0,0,0,3,0v-13C52.78,31.26,71.75,22,79.62,18c7.88,3.95,26.85,13.26,48.3,15.57V74.8a44.57,44.57,0,0,1-18.24,35.9c-17.91,13.07-26.21,18.92-30.05,21.54l-2.7-1.86a1.5,1.5,0,1,0-1.71,2.46Z" transform="translate(-9.53 -5.93)"/><path class="cls-1" d="M66.42,121.1a34.39,34.39,0,0,1-4.26-7.46,1.5,1.5,0,0,0-2.8,1.09A37.19,37.19,0,0,0,64,122.82a12.56,12.56,0,0,1,1.82,3s-.6,1.59-7.27,2.41-7.61-.56-7.61-.56c-.13-.43.51-2.08,1-3.29a36.31,36.31,0,0,0,2.51-8.94,10.25,10.25,0,0,0-7.3-11.31l-.12-.06a18.81,18.81,0,0,1-11.8-23,1.5,1.5,0,0,0-2.88-.84,21.69,21.69,0,0,0-.87,6.11,22.09,22.09,0,0,0,.35,3.83,1.92,1.92,0,0,0,0,.22c.32,1.49,1,6.51-4.36,8.75a33.4,33.4,0,0,1-8.29,2.1c-2.71.41-4.67.71-5.52,2.33-1.12,2.12,0,5.42,3.56,10.1,3.18,4.22,5.82,6.29,8,6.29a3.17,3.17,0,0,0,.69-.07c1.79-.37,2.64-2.21,3.82-4.75a33.8,33.8,0,0,1,4.33-7.42,1.5,1.5,0,0,0-2.35-1.88,37.25,37.25,0,0,0-4.7,8A12.07,12.07,0,0,1,25.31,117s-1.67.28-5.71-5.09S16.28,105,16.28,105c.3-.32,2-.59,3.33-.79a36,36,0,0,0,9-2.3,10.26,10.26,0,0,0,5.48-5.17,21.8,21.8,0,0,0,11.68,10.09L46,107c1.45.46,6.13,2.42,5.4,8.14a33.6,33.6,0,0,1-2.32,8.22c-1,2.56-1.72,4.4-.75,5.95s3.08,2.24,6.47,2.24a32.73,32.73,0,0,0,4.06-.28c5.81-.7,9-2.15,9.75-4.43C69.21,125.05,68,123.39,66.42,121.1Z" transform="translate(-9.53 -5.93)"/><path class="cls-1" d="M16.55,80.42a34.21,34.21,0,0,1,8.59,0,1.5,1.5,0,1,0,.45-3,36.7,36.7,0,0,0-9.31-.06,12.29,12.29,0,0,1-3.52.06S11.68,76.18,14.31,70s4.3-6.31,4.29-6.32A11.16,11.16,0,0,1,21,66.18a36.23,36.23,0,0,0,6.49,6.64,10.26,10.26,0,0,0,13.48-.69l.15-.11a18.79,18.79,0,0,1,25.47,1.07,1.51,1.51,0,0,0,1.06.44A1.51,1.51,0,0,0,68.67,71a21.58,21.58,0,0,0-8-5.07.8.8,0,0,0-.25-.11c-1.45-.47-6.13-2.43-5.4-8.16a33.16,33.16,0,0,1,2.32-8.22c1-2.56,1.72-4.4.74-5.95-1.27-2-4.72-2.67-10.53-2s-9,2.15-9.75,4.43c-.57,1.74.6,3.4,2.21,5.69a34,34,0,0,1,4.27,7.46A1.5,1.5,0,1,0,47.09,58a37.14,37.14,0,0,0-4.6-8.1,12.36,12.36,0,0,1-1.82-3s.6-1.59,7.27-2.41,7.61.56,7.61.56c.13.43-.51,2.08-1,3.29a36.35,36.35,0,0,0-2.51,8.93,10.22,10.22,0,0,0,1.75,7.34c-.2,0-.39,0-.58,0a21.64,21.64,0,0,0-14.1,5.18,0,0,0,0,0,0,0l-.11.06c-1.12,1-5.16,4.1-9.75.61a33.6,33.6,0,0,1-6-6.12c-1.71-2.15-2.92-3.68-4.77-3.62-2.4.09-4.68,2.75-7,8.14s-2.63,8.87-1,10.66a4,4,0,0,0,3.25,1.1C14.59,80.59,15.52,80.51,16.55,80.42Z" transform="translate(-9.53 -5.93)"/><path class="cls-1" d="M26.34,62.08c.28,1.34,1.52,2.06,3.23,3.06a30.4,30.4,0,0,1,3.83,2.53,1.49,1.49,0,0,0,2.11-.24,1.5,1.5,0,0,0-.24-2.11,33.84,33.84,0,0,0-4.19-2.77,14.33,14.33,0,0,1-1.75-1.12c.13-.31.66-1.2,2.75-2.78a9,9,0,0,1,3.42-1.92A14.71,14.71,0,0,1,36.23,59a36.42,36.42,0,0,0,1.57,4.72,1.5,1.5,0,1,0,2.76-1.16,35.41,35.41,0,0,1-1.44-4.36c-.56-2-1-3.45-2.18-4.09-1.52-.8-3.64-.1-6.67,2.2S26,60.4,26.34,62.08Z" transform="translate(-9.53 -5.93)"/><path class="cls-1" d="M67.31,114.7c.57,1.93,1,3.32,2.21,4a2.81,2.81,0,0,0,1.33.32c1.37,0,3.11-.83,5.34-2.52,3-2.29,4.28-4.14,3.93-5.82-.28-1.35-1.48-2-3-2.83a24.52,24.52,0,0,1-3.84-2.46,1.51,1.51,0,0,0-2.11.24,1.5,1.5,0,0,0,.24,2.11,27.21,27.21,0,0,0,4.27,2.74,15.06,15.06,0,0,1,1.45.86,8.74,8.74,0,0,1-2.75,2.77c-2.26,1.71-3.25,1.89-3.44,1.92a12.3,12.3,0,0,1-.75-2.14,40.19,40.19,0,0,0-1.53-4.41,1.5,1.5,0,1,0-2.76,1.17A36.74,36.74,0,0,1,67.31,114.7Z" transform="translate(-9.53 -5.93)"/><path class="cls-1" d="M45.84,111.36a1.5,1.5,0,0,0-1.71,1.26,42,42,0,0,0-.38,4.65,13.45,13.45,0,0,1-.18,2.25c-.31,0-1.34.06-3.81-1s-3.17-1.76-3.35-2a12.71,12.71,0,0,1,1.28-1.28,28.27,28.27,0,0,0,3.61-3.83,1.5,1.5,0,0,0-2.4-1.81,25.16,25.16,0,0,1-3.24,3.44c-1.32,1.21-2.37,2.18-2.31,3.55.07,1.71,1.74,3.2,5.24,4.68a12.94,12.94,0,0,0,4.75,1.24,3.25,3.25,0,0,0,2.26-.75c1-.92,1.08-2.38,1.15-4.41a36.8,36.8,0,0,1,.35-4.32A1.49,1.49,0,0,0,45.84,111.36Z" transform="translate(-9.53 -5.93)"/><path class="cls-1" d="M68.76,57.45a28.31,28.31,0,0,0-3.59,3.83,1.5,1.5,0,0,0,.29,2.1,1.47,1.47,0,0,0,.9.31,1.49,1.49,0,0,0,1.2-.6,25,25,0,0,1,3.24-3.43c1.32-1.22,2.36-2.19,2.31-3.56-.07-1.71-1.74-3.2-5.24-4.68s-5.73-1.63-7-.49c-1,.92-1,2.35-1,4.17a28,28,0,0,1-.24,4.6,1.49,1.49,0,0,0,1.26,1.7,1.51,1.51,0,0,0,1.71-1.26,31.56,31.56,0,0,0,.27-5.07,13.29,13.29,0,0,1,0-1.88c.34,0,1.38,0,3.77,1s3.17,1.77,3.35,2A14.18,14.18,0,0,1,68.76,57.45Z" transform="translate(-9.53 -5.93)"/><path class="cls-1" d="M85.15,85.41c-1.2-.26-2.69-.57-4.4-.78a1.5,1.5,0,0,0-.37,3c1.58.2,2.94.49,4.14.74a16.73,16.73,0,0,0,3.23.5,3.21,3.21,0,0,0,1.73-.44c1.45-.92,1.9-3.11,1.43-6.88s-1.45-5.78-3.08-6.32c-1.31-.42-2.55.32-4.13,1.25a27.17,27.17,0,0,1-4.11,2.1,1.5,1.5,0,1,0,1.09,2.79A29.18,29.18,0,0,0,85.23,79a14.21,14.21,0,0,1,1.68-.91c.2.28.7,1.2,1,3.77s0,3.68-.09,4A14.57,14.57,0,0,1,85.15,85.41Z" transform="translate(-9.53 -5.93)"/><path class="cls-1" d="M20.51,87.35a33.37,33.37,0,0,0,4.83,1,1.5,1.5,0,0,0,.36-3,30,30,0,0,1-4.4-.94c-1.84-.5-3.16-.86-4.32-.13-1.45.92-1.9,3.11-1.43,6.88S17,97,18.63,97.51a2.25,2.25,0,0,0,.76.13,6.9,6.9,0,0,0,3.31-1.41A25.06,25.06,0,0,1,26.87,94a1.5,1.5,0,1,0-1.1-2.79,29.06,29.06,0,0,0-4.66,2.44,13.47,13.47,0,0,1-1.57.9c-.21-.29-.7-1.22-1-3.75-.35-2.73,0-3.7,0-3.92A11.47,11.47,0,0,1,20.51,87.35Z" transform="translate(-9.53 -5.93)"/><path class="cls-1" d="M58.64,104.37a1.5,1.5,0,0,0,.43,2.93,1.59,1.59,0,0,0,.43-.06A21.62,21.62,0,0,0,67.32,103l.13-.08c1.13-1,5.15-4.09,9.75-.59a33.36,33.36,0,0,1,6,6.12c1.67,2.1,2.89,3.62,4.65,3.62h.12c2.4-.09,4.68-2.75,7-8.14s2.63-8.87,1-10.66c-1.21-1.36-3.23-1.18-6-.93a34.21,34.21,0,0,1-8.59,0,1.5,1.5,0,1,0-.45,3,37.18,37.18,0,0,0,9.31.06,11.92,11.92,0,0,1,3.52-.06s1.08,1.31-1.55,7.49S87.85,109,87.86,109c-.44-.11-1.54-1.49-2.35-2.5A36.56,36.56,0,0,0,79,99.9a10.25,10.25,0,0,0-7.25-2.16A21.7,21.7,0,0,0,75,86.36a22.2,22.2,0,0,0-.33-3.73,1.17,1.17,0,0,0,0-.32c-.32-1.49-1-6.52,4.35-8.75a33.4,33.4,0,0,1,8.29-2.1c2.71-.41,4.67-.71,5.52-2.33,1.12-2.12,0-5.42-3.56-10.1s-6.38-6.71-8.72-6.22c-1.79.36-2.64,2.21-3.82,4.75A34.21,34.21,0,0,1,72.39,65a1.5,1.5,0,0,0,2.34,1.88,37.77,37.77,0,0,0,4.71-8,12.45,12.45,0,0,1,1.7-3.09s1.68-.27,5.72,5.09,3.32,6.87,3.32,6.87c-.3.33-2.06.6-3.33.8a35.86,35.86,0,0,0-9,2.3A10.23,10.23,0,0,0,71.7,82.74a1,1,0,0,0,0,.17,18.8,18.8,0,0,1-13.07,21.46Z" transform="translate(-9.53 -5.93)"/></svg>